# xmcd
#
# Track frame offsets: 
#        150
#        5695
#        28709
#        53828
#        83943
#        95841
#        110752
#        126705
#        157333
#        173747
#        188473
#        202948
#        231348
#        249370
#        270188
#        289988
#        311127
#
# Disc length: 4549 seconds
#
# Revision: 0
# Processed by: cddbd v1.5.2PL0 Copyright (c) Steve Scherf et al.
# Submitted via: ExactAudioCopy v0.99pb3
#
DISCID=f511c311
DTITLE=Mister Gee - Poetry In The Key Of Gee
DYEAR=2005
DGENRE=Spoken Word
TTITLE0=Intro (by FLOetic Lara)
TTITLE1=Welcome:- "Born in London" (featuring Pheobe)
TTITLE2=Sea Shells (featuring FLOetic Lara)
TTITLE3=The Small Card
TTITLE4=The Back Of The Bus
TTITLE5=The Sound Of The African Drummer (featuring Joseph Jnr)
TTITLE6=Black History
TTITLE7=A Brief Glimpse Of Heaven (featuring Joseph Jnr)
TTITLE8=Poetry In The Key Of Gee
TTITLE9=More Overtime (live)
TTITLE10=The Day Hip-Hop Lied (live)
TTITLE11=Marvin's Question (featuring FLOetic Lara)
TTITLE12=There Was A Time
TTITLE13=A Lady Called Misogyny
TTITLE14=Keeping Angels Occupied
TTITLE15=Rhythm and Poetry (featuring Jahaziel and Joseph Jnr)
TTITLE16=Empty Stages
EXTD=
EXTT0=
EXTT1=
EXTT2=
EXTT3=
EXTT4=
EXTT5=
EXTT6=
EXTT7=
EXTT8=
EXTT9=
EXTT10=
EXTT11=
EXTT12=
EXTT13=
EXTT14=
EXTT15=
EXTT16=
PLAYORDER=
